# xmcd
#
# Track frame offsets:
# 150
# 12160
# 31325
# 41300
# 63002
# 83467
# 101207
# 117450
# 136220
# 146422
#
# Disc length: 2129 seconds
#
#
# Revision: 1
# Processed by: cddbd v1.5.1PL2 Copyright (c) Steve Scherf et al.
# Submitted via: FreeRIP 2.945 
#
DISCID=76084f0a
DTITLE=Gene Watson - Jesus Is All I Need
DYEAR=1997
DGENRE=Gospel
TTITLE0=Jesus Is All I Need
TTITLE1=Over There
TTITLE2=The City
TTITLE3=Amazing Grace
TTITLE4=Before The Hammer Could Ring
TTITLE5=Precious Memories
TTITLE6=Climb Higher
TTITLE7=Shine From The Mountain
TTITLE8=My Eyes Are On The Prize
TTITLE9=Will The Circle Be Unbroken
EXTD=
EXTT0=
EXTT1=
EXTT2=
EXTT3=
EXTT4=
EXTT5=
EXTT6=
EXTT7=
EXTT8=
EXTT9=
PLAYORDER=
